<svg width="177" height="61" viewBox="0 0 177 61" fill="none" xmlns="http://www.w3.org/2000/svg">
<path d="M11.9285 35.576C9.84047 35.576 7.80047 35.348 5.80847 34.892C3.84047 34.412 2.22047 33.776 0.948469 32.984L3.68447 26.792C4.88447 27.488 6.22847 28.052 7.71647 28.484C9.20447 28.892 10.6325 29.096 12.0005 29.096C13.1765 29.096 14.0165 28.988 14.5205 28.772C15.0245 28.532 15.2765 28.184 15.2765 27.728C15.2765 27.2 14.9405 26.804 14.2685 26.54C13.6205 26.276 12.5405 25.988 11.0285 25.676C9.08447 25.268 7.46447 24.836 6.16847 24.38C4.87247 23.9 3.74447 23.132 2.78447 22.076C1.82447 20.996 1.34447 19.544 1.34447 17.72C1.34447 16.136 1.78847 14.696 2.67647 13.4C3.56447 12.104 4.88447 11.084 6.63647 10.34C8.41247 9.596 10.5605 9.224 13.0805 9.224C14.8085 9.224 16.5005 9.416 18.1565 9.8C19.8365 10.16 21.3125 10.7 22.5845 11.42L20.0285 17.576C17.5565 16.328 15.2165 15.704 13.0085 15.704C10.8245 15.704 9.73247 16.232 9.73247 17.288C9.73247 17.792 10.0565 18.176 10.7045 18.44C11.3525 18.68 12.4205 18.944 13.9085 19.232C15.8285 19.592 17.4485 20.012 18.7685 20.492C20.0885 20.948 21.2285 21.704 22.1885 22.76C23.1725 23.816 23.6645 25.256 23.6645 27.08C23.6645 28.664 23.2205 30.104 22.3325 31.4C21.4445 32.672 20.1125 33.692 18.3365 34.46C16.5845 35.204 14.4485 35.576 11.9285 35.576ZM31.3131 16.388H23.9331V9.8H47.1891V16.388H39.8091V35H31.3131V16.388ZM61.1042 35.576C57.2402 35.576 54.2282 34.532 52.0682 32.444C49.9082 30.356 48.8282 27.428 48.8282 23.66V9.8H57.3242V23.408C57.3242 25.256 57.6482 26.6 58.2962 27.44C58.9682 28.28 59.9282 28.7 61.1762 28.7C62.4242 28.7 63.3722 28.28 64.0202 27.44C64.6922 26.6 65.0282 25.256 65.0282 23.408V9.8H73.3802V23.66C73.3802 27.428 72.3002 30.356 70.1402 32.444C67.9802 34.532 64.9682 35.576 61.1042 35.576ZM77.2747 9.8H89.6947C92.5027 9.8 94.9747 10.316 97.1107 11.348C99.2707 12.356 100.939 13.808 102.115 15.704C103.315 17.6 103.915 19.832 103.915 22.4C103.915 24.968 103.315 27.2 102.115 29.096C100.939 30.992 99.2707 32.456 97.1107 33.488C94.9747 34.496 92.5027 35 89.6947 35H77.2747V9.8ZM89.3347 28.376C91.1587 28.376 92.6107 27.86 93.6907 26.828C94.7947 25.772 95.3467 24.296 95.3467 22.4C95.3467 20.504 94.7947 19.04 93.6907 18.008C92.6107 16.952 91.1587 16.424 89.3347 16.424H85.7707V28.376H89.3347ZM107.017 9.8H115.513V35H107.017V9.8Z" fill="white"/>
<path d="M132.815 35.576C130.103 35.576 127.667 35.012 125.507 33.884C123.347 32.756 121.655 31.196 120.431 29.204C119.207 27.188 118.595 24.92 118.595 22.4C118.595 19.88 119.207 17.624 120.431 15.632C121.655 13.616 123.347 12.044 125.507 10.916C127.667 9.788 130.103 9.224 132.815 9.224C135.527 9.224 137.963 9.788 140.123 10.916C142.283 12.044 143.975 13.616 145.199 15.632C146.423 17.624 147.035 19.88 147.035 22.4C147.035 24.92 146.423 27.188 145.199 29.204C143.975 31.196 142.283 32.756 140.123 33.884C137.963 35.012 135.527 35.576 132.815 35.576ZM132.815 28.7C133.871 28.7 134.819 28.448 135.659 27.944C136.523 27.416 137.207 26.684 137.711 25.748C138.215 24.788 138.467 23.672 138.467 22.4C138.467 21.128 138.215 20.024 137.711 19.088C137.207 18.128 136.523 17.396 135.659 16.892C134.819 16.364 133.871 16.1 132.815 16.1C131.759 16.1 130.799 16.364 129.935 16.892C129.095 17.396 128.423 18.128 127.919 19.088C127.415 20.024 127.163 21.128 127.163 22.4C127.163 23.672 127.415 24.788 127.919 25.748C128.423 26.684 129.095 27.416 129.935 27.944C130.799 28.448 131.759 28.7 132.815 28.7ZM174.958 9.8V35H167.974L158.398 23.552V35H150.118V9.8H157.102L166.678 21.248V9.8H174.958Z" fill="#FFC500"/>
<path d="M119.948 57.168V58H113.513V48.9H119.753V49.732H114.475V52.969H119.181V53.788H114.475V57.168H119.948ZM129.649 48.9L125.619 58H124.67L120.64 48.9H121.68L125.164 56.804L128.674 48.9H129.649ZM137.404 57.168V58H130.969V48.9H137.209V49.732H131.931V52.969H136.637V53.788H131.931V57.168H137.404ZM147.271 48.9V58H146.478L140.628 50.616V58H139.666V48.9H140.459L146.322 56.284V48.9H147.271ZM152.009 49.732H148.811V48.9H156.169V49.732H152.971V58H152.009V49.732ZM161.557 58.078C160.655 58.078 159.836 57.8787 159.1 57.48C158.372 57.0727 157.8 56.518 157.384 55.816C156.976 55.114 156.773 54.3253 156.773 53.45C156.773 52.5747 156.976 51.786 157.384 51.084C157.8 50.382 158.372 49.8317 159.1 49.433C159.836 49.0257 160.655 48.822 161.557 48.822C162.458 48.822 163.268 49.0213 163.988 49.42C164.716 49.8187 165.288 50.3733 165.704 51.084C166.12 51.786 166.328 52.5747 166.328 53.45C166.328 54.3253 166.12 55.1183 165.704 55.829C165.288 56.531 164.716 57.0813 163.988 57.48C163.268 57.8787 162.458 58.078 161.557 58.078ZM161.557 57.22C162.276 57.22 162.926 57.0597 163.507 56.739C164.087 56.4097 164.542 55.959 164.872 55.387C165.201 54.8063 165.366 54.1607 165.366 53.45C165.366 52.7393 165.201 52.098 164.872 51.526C164.542 50.9453 164.087 50.4947 163.507 50.174C162.926 49.8447 162.276 49.68 161.557 49.68C160.837 49.68 160.183 49.8447 159.594 50.174C159.013 50.4947 158.554 50.9453 158.216 51.526C157.886 52.098 157.722 52.7393 157.722 53.45C157.722 54.1607 157.886 54.8063 158.216 55.387C158.554 55.959 159.013 56.4097 159.594 56.739C160.183 57.0597 160.837 57.22 161.557 57.22ZM170.993 58.078C170.317 58.078 169.667 57.9697 169.043 57.753C168.428 57.5363 167.951 57.2503 167.613 56.895L167.99 56.154C168.319 56.4833 168.757 56.752 169.303 56.96C169.849 57.1593 170.412 57.259 170.993 57.259C171.808 57.259 172.419 57.1117 172.826 56.817C173.233 56.5137 173.437 56.1237 173.437 55.647C173.437 55.283 173.324 54.9927 173.099 54.776C172.882 54.5593 172.614 54.3947 172.293 54.282C171.972 54.1607 171.526 54.0307 170.954 53.892C170.269 53.7187 169.723 53.554 169.316 53.398C168.909 53.2333 168.558 52.9863 168.263 52.657C167.977 52.3277 167.834 51.8813 167.834 51.318C167.834 50.8587 167.955 50.4427 168.198 50.07C168.441 49.6887 168.813 49.3853 169.316 49.16C169.819 48.9347 170.443 48.822 171.188 48.822C171.708 48.822 172.215 48.8957 172.709 49.043C173.212 49.1817 173.645 49.3767 174.009 49.628L173.684 50.395C173.303 50.1437 172.895 49.9573 172.462 49.836C172.029 49.706 171.604 49.641 171.188 49.641C170.391 49.641 169.788 49.797 169.381 50.109C168.982 50.4123 168.783 50.8067 168.783 51.292C168.783 51.656 168.891 51.9507 169.108 52.176C169.333 52.3927 169.611 52.5617 169.94 52.683C170.278 52.7957 170.729 52.9213 171.292 53.06C171.959 53.2247 172.497 53.3893 172.904 53.554C173.32 53.71 173.671 53.9527 173.957 54.282C174.243 54.6027 174.386 55.0403 174.386 55.595C174.386 56.0543 174.26 56.4747 174.009 56.856C173.766 57.2287 173.389 57.5277 172.878 57.753C172.367 57.9697 171.738 58.078 170.993 58.078Z" fill="#E5E5E5"/>
</svg>
